<?xml version="1.0" encoding="UTF-8"?>
<!-- Generator: Adobe Illustrator 21.0.2, SVG Export Plug-In . SVG Version: 6.00 Build 0)  -->
<svg xmlns="http://www.w3.org/2000/svg" xmlns:xlink="http://www.w3.org/1999/xlink" version="1.1" id="Calque_1" x="0px" y="0px" viewBox="0 0 194.7 88.6" style="enable-background:new 0 0 194.7 88.6;" xml:space="preserve">
<style type="text/css">
	.st0{fill:#932C87;}
	.st1{fill:#FDC212;}
	.st2{fill:#223971;}
	.st3{fill:#00A2D4;stroke:#00A2D4;stroke-width:0.1333;}
	.st4{fill:#00A2D4;stroke:#00A2D4;stroke-width:0.1185;}
	.st5{fill:none;stroke:#FDC212;stroke-width:0.5925;}
	.st6{fill:#FFFFFF;}
	.st7{fill:none;stroke:#E6A92A;stroke-width:0.2666;}
	.st8{fill:none;}
	.st9{fill:#E6A921;}
	.st10{fill:none;stroke:#FDC212;stroke-width:0.9629;}
	.st11{fill:none;stroke:#FDC212;stroke-width:0.6518;}
	.st12{fill:none;stroke:#FDC212;stroke-width:0.5925;stroke-linecap:square;}
	.st13{fill:none;stroke:#FDC212;stroke-width:0.4;}
	.st14{fill:none;stroke:#FDC212;stroke-width:0.9629;stroke-linecap:square;stroke-miterlimit:2;}
	.st15{fill:none;stroke:#FDC212;stroke-width:0.5925;stroke-linecap:square;stroke-miterlimit:2;}
	.st16{fill:none;stroke:#E6A92A;stroke-width:0.4;}
	.st17{fill:none;stroke:#E6A92A;stroke-width:0.6518;}
	.st18{fill:#009FD3;stroke:#009FD3;stroke-width:0.3256;}
</style>
<g>
	<path class="st0" d="M83.3,51C83.3,51,83.4,51,83.3,51c0.1,0.2,0,0.2-0.1,0.2l-0.9,0.2c-0.2,0-0.2,0.1-0.2,0.2   c-0.2,1.5-0.2,3.6-0.2,5.3c0,3.3,1,4.8,2.6,4.8c1.9,0,2.8-1.5,2.8-4.9c0-1.4-0.1-3.8-0.2-5.2c0-0.2-0.1-0.2-0.2-0.2l-1-0.2   C86,51.2,86,51,86,51c0-0.1,0-0.1,0.1-0.1h3.3c0,0,0.1,0,0.1,0.1s-0.1,0.2-0.1,0.2l-0.6,0.1c-0.2,0.1-0.2,0.1-0.2,0.2   c0.1,1.4,0.2,3.2,0.2,5.3c0,3.3-1.7,5.2-4.4,5.2c-2.3,0-4.1-1.2-4.1-4.9c0-2.1,0.2-4.5,0.4-5.4c0.1-0.2,0-0.3-0.2-0.4l-0.6-0.2   C80,51.1,80,51,80,51s0-0.1,0.1-0.1L83.3,51L83.3,51z"></path>
	<path class="st0" d="M103.4,51C103.4,51,103.5,51.1,103.4,51c0.1,0.2,0,0.2-0.1,0.2l-0.7,0.2c-0.2,0.1-0.2,0.2-0.2,0.5   c0,0.3,0.1,3.8,0.1,4.5c0,0.8,0.1,4.1,0.1,4.9c0,0.2,0.1,0.2,0.2,0.2l0.8,0.2l0.1,0.2c0,0,0,0.1-0.1,0.1c-0.3,0-0.9-0.1-1.6-0.1   c-0.8,0-1.6,0-1.9,0.1c-0.1,0-0.1,0-0.1-0.1s0-0.2,0.1-0.2l1-0.2c0.1-0.1,0.2-0.2,0.2-0.3c-0.1-1.4-0.3-6.6-0.4-8.4   c0-0.2,0-0.6,0-0.7h-0.2c-0.1,0.2-0.2,0.5-0.2,0.6c-1,2.5-2.8,6.9-3.6,8.8c-0.1,0.2-0.2,0.2-0.5,0.2h-0.3c0,0-0.1,0-0.1-0.1   c-0.7-1.8-2.5-6.2-3.3-8.6c-0.1-0.2-0.2-0.5-0.2-0.6h-0.1c0,0.2-0.1,0.5-0.1,0.6c-0.2,1.9-0.6,7-0.7,8c0,0.2,0.1,0.2,0.2,0.2   l1.1,0.2c0,0,0.1,0.1,0.1,0.2c0,0,0,0.1-0.1,0.1c-0.3,0-1-0.1-1.5-0.1c-0.5,0-1,0-1.3,0.1c-0.1,0-0.1,0-0.1-0.1   c0-0.1,0.1-0.2,0.1-0.2l0.7-0.2c0.2,0,0.2-0.1,0.2-0.2c0.1-0.7,0.2-4.1,0.2-4.8c0.1-0.7,0.2-4.4,0.2-4.7c0-0.2-0.1-0.4-0.2-0.4   l-0.8-0.2c-0.1,0-0.1-0.1-0.1-0.2s0-0.1,0.1-0.1h2.9c0.1,0,0.2,0.1,0.2,0.1c0.7,2.1,2.3,6.9,3,8.8c0.1,0.2,0.2,0.4,0.2,0.6h0.1   c0.1-0.2,0.2-0.5,0.2-0.6c0.9-2.2,2.5-6.6,3.3-8.8c0-0.1,0.1-0.1,0.2-0.1L103.4,51L103.4,51z"></path>
	<path class="st0" d="M112.6,53.8c0,1.6-1.4,2.6-2.3,2.9c0.8,1.1,2,3.1,2.7,4.5c0.1,0.2,0.2,0.2,0.2,0.2l0.7,0.2   c0,0,0.1,0.1,0.1,0.2c0,0.1,0,0.1-0.1,0.1c-0.3,0-0.8-0.1-1.5-0.1c-0.6,0-1.1,0-1.8,0.1c-0.1,0-0.1,0-0.1-0.1   c0-0.1,0.1-0.2,0.1-0.2l0.8-0.2c0.2-0.1,0.2-0.1,0.2-0.2c-0.8-1.1-2-2.9-3-4.1c-0.1-0.1-0.2-0.1-0.2-0.1c-0.3,0.1-1,0.1-1.4,0   c0,0.6-0.1,3.5-0.1,4.1c0,0.2,0.1,0.2,0.2,0.2l1,0.2c0,0,0.1,0.1,0.1,0.2s0,0.1-0.1,0.1c-0.6,0-1.2-0.1-1.8-0.1   c-0.6,0-1.3,0-1.8,0.1c-0.1,0-0.1,0-0.1-0.1s0-0.2,0.1-0.2l0.8-0.2c0.1-0.1,0.2-0.1,0.2-0.2c0-0.6,0-4.1,0-4.9   c0-0.7-0.1-4.1-0.1-4.5c0-0.2-0.1-0.3-0.2-0.3l-0.8-0.1c0,0-0.1-0.1-0.1-0.2c0,0,0-0.1,0.1-0.1c0.6-0.1,2.2-0.2,3.7-0.2   C111.2,51,112.5,52.2,112.6,53.8L112.6,53.8L112.6,53.8z M108,57c1.6,0,3-1,3-3c0-1.6-1.1-2.6-2.8-2.6c-0.6,0-0.8,0.1-0.8,0.3   c-0.1,1.3-0.2,4.8-0.2,5C107.2,56.9,107.3,57,108,57L108,57L108,57z"></path>
	<path class="st0" d="M122.4,56.5c0.2,0.1,0.4,0.1,0.5,0.1c1.3,0.3,2.2,1.3,2.2,2.6c0,1.7-1.5,2.9-4,2.9c-1.9,0-3.5-0.9-3.5-2.6   c0-1.3,1-2.3,2.2-2.8c0.2-0.1,0.3-0.1,0.5-0.2l0,0c-0.2-0.1-0.3-0.1-0.4-0.2c-1-0.3-1.8-1.1-1.8-2.2c0-1.6,1.6-2.8,3.6-2.8   s3,1,3,2.5c0,1.1-0.8,2-1.8,2.5C122.6,56.3,122.6,56.4,122.4,56.5L122.4,56.5L122.4,56.5z M121.3,61.8c1.3,0,2.3-1,2.3-2.5   c0-1.6-1-2.6-2.2-2.6c-1.4,0-2.3,1.2-2.3,2.7S120,61.8,121.3,61.8L121.3,61.8L121.3,61.8z M121.3,56.3c1,0,1.9-1,1.9-2.3   c0-1.4-0.6-2.3-1.8-2.3c-1.3,0-2,1-2,2.3C119.4,55.5,120.2,56.3,121.3,56.3L121.3,56.3L121.3,56.3z"></path>
	<path class="st0" d="M125.9,53c-0.1,0-0.2-0.1-0.2-0.2c0,0,0-0.1,0.1-0.1l3-1.4h0.1c0.1,0,0.1,0.1,0.1,0.2c0,0.2-0.2,4.2-0.2,5.4   c0,1.4-0.1,4.1-0.1,4.5c0,0.2,0.2,0.2,0.2,0.2l1.1,0.2l0.2,0.2c0,0.1,0,0.1-0.1,0.1c-0.6,0-1.2-0.1-2-0.1s-1.6,0-2,0.1   c-0.1,0-0.1,0-0.1-0.1s0.1-0.2,0.1-0.2l1.1-0.2c0.1,0,0.2-0.1,0.2-0.2c0-0.4,0-3.4-0.1-4.2c0-1-0.1-3.7-0.1-4.2   c0-0.2-0.1-0.3-0.2-0.2L125.9,53L125.9,53z"></path>
	<path class="st0" d="M132.6,57.3c0.1-0.2,0.2-0.5,0.2-0.6c0.5-1,1.4-1.7,2.6-1.7c1.8,0,2.9,1.4,2.9,3.2c0,2.2-1.5,3.7-3.7,3.7   c-1.9,0-3.4-1.4-3.4-3.8c0-2.1,0.7-3.7,1.8-4.9c1-1.1,2.2-1.9,3.5-2.3c0.1,0,0.2,0.1,0.2,0.2c0,0,0,0.1-0.1,0.1   c-1.2,0.5-2.2,1.4-2.8,2.5c-0.6,1.1-1,2.2-1.1,2.9C132.7,56.8,132.6,57.1,132.6,57.3L132.6,57.3L132.6,57.3z M134.8,61.8   c1.3,0,2.1-1.4,2.1-3.3c0-1.7-0.6-2.8-1.8-2.8c-1,0-1.9,1-2.3,2.5c-0.1,0.2-0.1,0.2-0.1,0.5C132.6,60.5,133.6,61.8,134.8,61.8   L134.8,61.8z"></path>
	<path class="st0" d="M144.2,52.2c-0.2,0-0.5-0.1-0.7-0.1c-0.7-0.1-2.8-0.3-3.3-0.3c-0.2,0-0.2,0.2-0.2,0.2l-0.8,1.8   c0,0,0,0.1-0.1,0.1c-0.1,0-0.2-0.1-0.2-0.2l0.2-2.2c0-0.1,0.1-0.2,0.2-0.2c0.3,0,1.6,0,2.9,0c1.4,0,2.9,0,3.3-0.1   c0.1,0,0.1,0,0.1,0.1c0.2,0.3,0.2,0.5,0.2,0.6s0,0.2-0.1,0.3c-1.2,2.4-3.5,7.3-4.7,9.6c-0.1,0.1-0.1,0.2-0.2,0.2   c-0.3,0-0.6-0.1-0.5-0.2c1.1-2.9,2.3-6.1,3.5-9C143.9,52.7,144,52.5,144.2,52.2L144.2,52.2L144.2,52.2z"></path>
</g>
<g>
	<path class="st1" d="M47.3,36.9c0,0,3.2-2.8,2.8-6.3c-0.4-3.3-2.5-5.2-2.3-5c0,0,4.8,7.3,10.2-0.1c0,0-5.8,5.2,1.6,11.7   C59.6,37.2,54,30,47.3,36.9z"></path>
	<g>
		<polygon class="st2" points="72,88.1 0.9,88.1 0.7,0.7 71.9,0.7   "></polygon>
		<g>
			<g>
				<path class="st3" d="M34.2,78.9c-2.8,0.1-6.1-2.3-5.3-5.7c0.4-1.7,2.1-3.4,3.9-2.5c2.7,1.2,0.5,4.6-0.1,2.1      c-0.2-0.8-0.9,0-0.9,0.6c0,1.1,0.6,1.8,1.6,1.9c2.7,0.2,3.7-3,3-5.1c-1.1-3.3-7.4-4.5-10.4-0.8s-3.3,8.7-8.7,9.7v0.5h17      L34.2,78.9"></path>
				<path class="st3" d="M18,78.9c-2.8,0.1-6.1-2.3-5.3-5.7c0.4-1.7,2.1-3.4,3.9-2.5c2.7,1.2,0.5,4.6-0.1,2.1      c-0.2-0.8-0.9,0-0.9,0.6c0,1.1,0.6,1.8,1.6,1.9c2.7,0.2,3.7-3,3-5.1c-1.1-3.3-7.4-4.5-10.4-0.8s-3.3,8.7-8.7,9.7l2.1,0.5h14.9      L18,78.9"></path>
				<path class="st3" d="M50.8,78.9c-2.8,0.1-6.1-2.3-5.3-5.7c0.4-1.7,2.1-3.4,3.9-2.5c2.7,1.2,0.5,4.6-0.1,2.1      c-0.2-0.8-0.9,0-0.9,0.6c0,1.1,0.6,1.8,1.6,1.9c2.7,0.2,3.7-3,3-5.1c-1.1-3.3-7.4-4.5-10.4-0.8s-3.3,8.7-8.7,9.7v0.5h17      L50.8,78.9"></path>
				<path class="st3" d="M67.3,78.9c-2.8,0.1-6.1-2.3-5.3-5.7c0.4-1.7,2.1-3.4,3.9-2.5c2.7,1.2,0.5,4.6-0.1,2.1      c-0.2-0.8-0.9,0-0.9,0.6c0,1.1,0.6,1.8,1.6,1.9c2.7,0.2,3.7-3,3-5.1c-1.1-3.3-7.4-4.5-10.4-0.8s-3.3,8.7-8.7,9.7v0.5h17      L67.3,78.9"></path>
			</g>
			<rect x="1.1" y="78.9" class="st4" width="71.1" height="9.7"></rect>
		</g>
		<polyline class="st5" points="9.5,9.7 24.1,24.9 27.3,25.3 11.3,8.8   "></polyline>
		<path class="st1" d="M7.7,8.1c0-1.2,1-2.3,2.3-2.3s2.3,1,2.3,2.3s-1,2.3-2.3,2.3S7.7,9.4,7.7,8.1z"></path>
		<g>
			<path class="st6" d="M0,0.9h0.9V0C0.6,0.3,0.3,0.6,0,0.9z"></path>
			<polygon class="st7" points="34.5,6.3 37.2,5.9 37.2,5.9    "></polygon>
			<polygon class="st7" points="23.9,34.5 22.5,32.1 22.5,32.1    "></polygon>
			<path class="st8" d="M34.1,4.2c-0.2-0.7-0.4-1.4-0.7-2.1c-0.2-0.4-0.3-0.9-0.5-1.3h-1.6c1.4,3,2.2,6.3,2.2,9.8     c0,12.8-10.4,23.3-23.3,23.3c-3.3,0-6.5-0.7-9.3-2v1.7c0.3,0.1,0.5,0.2,0.8,0.3c0.7,0.3,1.4,0.5,2.1,0.7s1.4,0.3,2.1,0.5     c0.7,0.1,1.4,0.2,2.1,0.3s1.4,0.1,2.2,0.1c0.7,0,1.5,0,2.2-0.1c0.8-0.1,1.6-0.2,2.4-0.3c0.7-0.1,1.4-0.3,2-0.5s1.2-0.4,1.9-0.6     c0.7-0.3,1.3-0.5,2-0.8s1.3-0.6,1.9-1l0,0l1.8-1.2c0.6-0.4,1.2-0.9,1.7-1.3c0.5-0.5,1.1-0.9,1.6-1.5c0.5-0.5,1-1.1,1.5-1.6     s0.9-1.1,1.3-1.7s0.8-1.2,1.2-1.8c0.4-0.6,0.7-1.3,1-1.9c0.3-0.7,0.6-1.3,0.8-2s0.5-1.4,0.7-2.1s0.3-1.4,0.5-2.1     c0.1-0.7,0.2-1.4,0.3-2.1c0.1-0.7,0.1-1.4,0.1-2.1l0,0c0-0.7,0-1.4-0.1-2.1c-0.1-0.7-0.1-1.4-0.3-2.1l0,0     C34.4,5.6,34.3,4.9,34.1,4.2L34.1,4.2z"></path>
			<path class="st5" d="M29.4,0.9c1.1,2.2,1.9,4.7,2.2,7.2h0.1v0.7c0.1,0.6,0.1,1.3,0.1,1.9c0,3.1-0.7,6.1-1.9,8.8l0,0l0,0     c-1.3,2.9-3.2,5.5-5.6,7.5l0,0l0,0c-3.8,3.2-8.7,5.2-14,5.2c0,0,0,0-0.1,0v0.1v-0.1c-3.3,0-6.5-0.8-9.3-2.1V32c2.9,1.3,6,2,9.3,2     C23,34,33.5,23.6,33.5,10.7c0-3.5-0.8-6.8-2.2-9.8"></path>
			<path class="st9" d="M31.7,8.1L31.7,8.1c0,0.2,0,0.5,0,0.7V8.1z"></path>
			<path class="st5" d="M13.9,24.4c1.5,2.9,3.3,6.2,3.8,6.4C17.1,30.6,15.3,27.3,13.9,24.4c-1.1,0.3-2.3,0.4-3.5,0.4     c-0.1,0-0.2,0-0.2,0v7.4c0,0,0,0,0.1,0c5.4,0,10.3-2,14-5.2c-2.8-1.2-5.1-2.7-6.9-4C16.2,23.7,15.1,24.1,13.9,24.4L13.9,24.4z"></path>
			<path class="st5" d="M21.1,20c-1.1,1.2-2.3,2.2-3.7,3c1.8,1.3,4.2,2.7,6.9,4c2.4-2.1,4.3-4.6,5.6-7.5     C29.4,19.5,25.5,20.1,21.1,20z"></path>
			<path class="st5" d="M24.6,10.4c0,0,0,0.1,0,0.2c0,1.3-0.2,2.5-0.5,3.7c2.4-1.6,4.2-3.5,5.3-5.1"></path>
			<path class="st10" d="M26,8.6c-0.3,0.4-1,1.4-1.3,1.8"></path>
			<path class="st5" d="M6.6,24.3c-1.5,2.9-3.3,6.2-3.8,6.4C3.3,30.6,5.1,27.2,6.6,24.3c-1.2-0.3-2.3-0.8-3.4-1.4     c-0.7,0.5-1.5,1-2.3,1.5V30c2.8,1.3,5.9,2.1,9.3,2.1v-7.4C8.9,24.8,7.7,24.6,6.6,24.3L6.6,24.3z"></path>
			<path class="st11" d="M0.9,24.5C1.8,24,2.5,23.4,3.2,23c-0.8-0.5-1.6-1.1-2.3-1.7C0.9,21.3,0.9,24.5,0.9,24.5z"></path>
			<path class="st5" d="M30.1,8.4c-1.2,1.6-3.5,4.3-5.9,5.8c-0.3,1.1-0.7,2.1-1.2,3.1c4.7-1.7,8.7-4.6,8.7-4.6s-4,2.9-8.7,4.6     c-0.5,1-1.2,1.9-1.9,2.7c4.4,0,8.4-0.5,8.8-0.6c1.2-2.7,1.9-5.7,1.9-8.8"></path>
			<path class="st12" d="M28.4,0.9c-0.2,2.6-1,5.1-2.2,7.2h4.1c0.7-1.1,1-1.8,1-1.8S31,7,30.3,8.1h1.4c-0.3-2.6-1.1-5-2.2-7.2"></path>
			<path class="st5" d="M3.1,16.9c-0.8-0.1-1.5-0.3-2.2-0.5v1.9c1.4,0.3,2.8,0.4,4.1,0.2c-1.1-0.7-1.9-1.6-2.6-2.7     c-0.5-0.2-1-0.5-1.4-0.8v1.3C1.6,16.6,2.3,16.8,3.1,16.9L3.1,16.9z"></path>
			<path class="st5" d="M15.4,18.5c-1.5,1-3.3,1.6-5.2,1.6S6.5,19.5,5,18.5c-1.3,0.1-2.7,0-4.1-0.2V20c1.9-0.1,3.8-0.2,5.5-0.6     C4.7,19.8,2.8,20,0.9,20v1.3C1.6,22,2.4,22.5,3.2,23c2.5-1.8,4-3.3,4-3.3s-1.5,1.5-4,3.3c1.1,0.6,2.2,1.1,3.4,1.4     C7.8,22,8.8,20,8.8,20s-1,2-2.1,4.3c1.1,0.3,2.3,0.5,3.5,0.5v-4.7v4.7c0.1,0,0.2,0,0.2,0c1.2,0,2.4-0.1,3.5-0.4     c-1.2-2.3-2.1-4.3-2.1-4.3s1,2,2.1,4.3c1.2-0.3,2.4-0.8,3.5-1.4c-2.6-1.8-4.1-3.3-4.1-3.3s1.5,1.5,4.1,3.3c1.4-0.8,2.7-1.8,3.7-3     c-2.4,0-4.8-0.2-7-0.7c2.1,0.5,4.6,0.6,7,0.7c0.7-0.8,1.3-1.7,1.9-2.7C20.5,18.2,17.8,18.8,15.4,18.5L15.4,18.5z"></path>
			<path class="st13" d="M15.4,18.5c2.4,0.3,5-0.3,7.5-1.2c0.5-1,0.9-2,1.2-3.1c-1.9,1.2-4.1,2.2-6.8,2.7c2.7-0.5,4.9-1.5,6.8-2.7     c0.3-1.2,0.5-2.4,0.5-3.7c0-0.1,0-0.1,0-0.2c-1.7,2.2-3.9,4-6.4,5.2C17.5,16.8,16.6,17.8,15.4,18.5L15.4,18.5z"></path>
			<path class="st5" d="M4.9,18.5c0,0,0.1,0,0.2,0C5.1,18.5,5,18.5,4.9,18.5c1.5,1,3.3,1.6,5.3,1.6s3.7-0.6,5.2-1.6h-0.1h0.1     c1.1-0.7,2.1-1.7,2.8-2.9c-2.4,1.2-5.2,1.9-8.1,1.9s-5.5-0.6-7.8-1.8C3,16.8,3.9,17.7,4.9,18.5L4.9,18.5z"></path>
			<path class="st14" d="M26.2,8.1c1.2-2.2,2-4.6,2.2-7.2"></path>
			<path class="st15" d="M20.8,0.9c1.9,2,3.1,4.5,3.6,7.2h1.8"></path>
			<path class="st16" d="M0.9,9.2L0.9,9.2v0.4C0.9,9.4,0.9,9.3,0.9,9.2z"></path>
			<path class="st5" d="M0.9,8.1h0.3c1.1-3.9,4.7-6.8,9-6.8s7.9,2.9,9.1,6.8h5.1c-0.5-2.8-1.8-5.3-3.6-7.2H0.9V8.1z"></path>
			<path class="st5" d="M19.5,9.2c0.1,0.5,0.1,1,0.1,1.5c0,1.8-0.5,3.5-1.4,5"></path>
			<path class="st5" d="M24.6,10.4c0-0.4,0-1.4,0-1.8"></path>
			<path class="st10" d="M18.2,15.7c2.5-1.2,4.7-3,6.4-5.2"></path>
			<path class="st16" d="M0.9,11.8V15c0.5,0.3,0.9,0.5,1.4,0.8C1.6,14.6,1.1,13.2,0.9,11.8z"></path>
			<path class="st9" d="M0.9,9.2C1,8.8,1.1,8.4,1.2,8.1H0.9V9.2L0.9,9.2z"></path>
			<line class="st5" x1="31.6" y1="8.5" x2="1" y2="8.6"></line>
			<path class="st5" d="M18.2,15.7c0.9-1.5,1.4-3.2,1.4-5c0-0.5-0.1-1.6-0.2-2.1"></path>
			<path class="st10" d="M0.9,9.2c0,0.1,0,0.3-0.1,0.4v2.2c0.2,1.5,0.7,2.8,1.4,4c2.4,1.1,5,1.8,7.8,1.8s5.6-0.7,8.1-1.9"></path>
			<path class="st5" d="M10.2,1.3c-4.3,0-7.9,2.9-9,6.8h18.1C18.1,4.1,14.5,1.3,10.2,1.3z"></path>
			<path class="st6" d="M0.8,10.7c0,0.4,0,0.7,0.1,1.1V9.6C0.8,9.9,0.8,10.3,0.8,10.7z"></path>
			<path class="st11" d="M12.3,35.3l0.2,2.7L12.3,35.3c-0.7,0.1-1.4,0.1-2.2,0.1v2.7v-2.7c-0.7,0-1.5,0-2.2-0.1L7.7,38L8,35.3     c-0.7-0.1-1.4-0.1-2.1-0.3l-0.5,2.7L5.8,35c-0.7-0.1-1.4-0.3-2.1-0.5L3,37.2l0.7-2.6c-0.7-0.2-1.4-0.4-2.1-0.7L0.8,36v0.5     c2.9,1,6,1.6,9.3,1.6c1.7,0,3.4-0.2,5.1-0.5L14.7,35C13.9,35.1,13.1,35.2,12.3,35.3L12.3,35.3z"></path>
			<path class="st11" d="M0.9,36.1L1.7,34c-0.3-0.1-0.5-0.2-0.8-0.3"></path>
			<path class="st11" d="M32.9,0.9c0.2,0.4,0.4,0.9,0.5,1.3l2.4-0.9c-0.1-0.1-0.1-0.3-0.2-0.4h-0.2"></path>
			<polygon class="st17" points="37.2,5.9 37.2,5.9 34.5,6.3    "></polygon>
			<path class="st11" d="M34.5,6.3l2.7-0.5c-0.1-0.8-0.3-1.6-0.6-2.3L34,4.2C34.2,4.9,34.4,5.6,34.5,6.3L34.5,6.3z"></path>
			<path class="st11" d="M34.5,6.3c0.1,0.7,0.2,1.4,0.3,2.1l2.7-0.2l-2.7,0.2c0.1,0.7,0.1,1.4,0.1,2.1h2.7h-2.7l0,0     c0,0.7,0,1.4-0.1,2.1l2.7,0.2l-2.7-0.2c-0.1,0.7-0.2,1.4-0.3,2.1l2.7,0.5l-2.7-0.5c-0.1,0.7-0.3,1.4-0.5,2.1l2.6,0.7L34,16.8     c-0.2,0.7-0.4,1.4-0.7,2.1L36,20l-2.6-0.9c-0.3,0.7-0.5,1.3-0.8,2l2.5,1.2l-2.5-1.2c-0.3,0.7-0.6,1.3-1,1.9l2.4,1.4L31.6,23     c-0.4,0.6-0.8,1.2-1.2,1.8l2.2,1.6l-2.2-1.6c-0.4,0.6-0.8,1.2-1.3,1.7l2.1,1.7l-2.1-1.7c-0.5,0.5-0.9,1.1-1.5,1.6l1.9,1.9     l-1.9-1.9c-0.5,0.5-1,1-1.6,1.5l1.7,2.1L26,29.6c-0.5,0.5-1.1,0.9-1.7,1.3l1.6,2.2l-1.6-2.2l-1.8,1.2l1.3,2.3l-1.3-2.3     c-0.6,0.4-1.3,0.7-1.9,1l1.1,2.4l-1.1-2.4c-0.7,0.3-1.3,0.6-2,0.8l0.9,2.5L18.6,34c-0.6,0.2-1.2,0.4-1.9,0.6l0.7,2.4l-0.7-2.4     c-0.7,0.2-1.3,0.3-2,0.5l0.5,2.7C28,35.4,37.7,24.2,37.7,10.7c0-1.7-0.2-3.3-0.5-4.8L34.5,6.3L34.5,6.3z"></path>
			<path class="st11" d="M34.1,4.2l2.6-0.7c-0.2-0.8-0.5-1.5-0.8-2.2l-2.4,0.9C33.7,2.9,33.9,3.6,34.1,4.2L34.1,4.2z"></path>
		</g>
	</g>
	<path class="st1" d="M44.6,31.1c0,0,4.2,0.4,6.5-2.3c2.2-2.5,1.9-8,1.9-7.6c0,0,0.3,10,7.2,10c0,0-7.5,0.6-7.2,10.5   C53,41.6,54.2,31.3,44.6,31.1L44.6,31.1z"></path>
</g>
<g>
	<path class="st2" d="M95.7,28.6C95.7,28.6,95.8,28.7,95.7,28.6c0.1,0.2,0,0.3-0.1,0.3L94.7,29c-0.2,0-0.2,0.3-0.3,0.5   c0,0.4,0.1,4.6,0.1,5.4c0,0.9,0.1,5.1,0.1,6c0,0.2,0.1,0.3,0.2,0.3l0.9,0.2c0,0,0.1,0.1,0.1,0.2c0,0,0,0-0.1,0c-0.4,0-1,0-1.8,0   c-0.9,0-1.9,0-2.3,0c0,0,0,0,0-0.1s0-0.2,0.1-0.2l1.2-0.2c0.1,0,0.2-0.1,0.2-0.3c0-1.6-0.4-8-0.5-10.1c0-0.2,0-0.6,0-0.9h-0.1   c-0.1,0.3-0.2,0.6-0.3,0.8c-1.2,3-3.3,8.4-4.2,10.6c-0.1,0.2-0.2,0.3-0.6,0.3H87c0,0-0.1,0-0.1-0.1C86,39.2,84,33.8,83,31   c-0.1-0.2-0.2-0.5-0.3-0.8h-0.1c0,0.2,0,0.5-0.1,0.8c-0.2,2.3-0.8,8.5-0.9,9.7c0,0.2,0,0.3,0.2,0.3l1.3,0.2c0,0,0.1,0.1,0.1,0.2   c0,0,0,0-0.1,0c-0.4,0-1.1,0-1.8,0c-0.6,0-1.2,0-1.5,0l0,0c0-0.1,0.1-0.2,0.1-0.2l0.9-0.2c0.1,0,0.3-0.1,0.3-0.3   c0-0.9,0.2-5,0.3-5.8c0-0.9,0.3-5.3,0.3-5.7c0-0.2-0.1-0.4-0.3-0.5L80.6,29c-0.1,0-0.1-0.1-0.1-0.2c0,0,0-0.1,0.1-0.1H84   c0.1,0,0.1,0,0.2,0.1c0.8,2.5,2.8,8.3,3.6,10.8c0.1,0.2,0.2,0.5,0.3,0.7h0.1c0.1-0.3,0.2-0.6,0.3-0.8c1-2.6,2.9-8,3.9-10.7   c0-0.1,0.1-0.1,0.1-0.1L95.7,28.6L95.7,28.6z"></path>
	<path class="st2" d="M105.1,36.1c0,0.3-0.2,0.6-0.5,0.6c-0.8,0.2-4.7,0.3-5.6,0.2c0,0.4,0,0.9,0,1.2c0.1,1.9,1.4,3.1,2.8,3.1   c0.6,0,1.1-0.1,1.4-0.2c0.5-0.1,1.2-0.5,1.7-0.7c0,0,0.1,0.1,0.1,0.2c0,0,0,0.1-0.1,0.1c-0.4,0.3-1.4,0.9-2.2,1.1   c-0.3,0.1-0.8,0.2-1.5,0.2c-2.3,0-4-1.3-4-4.3c0-2.8,1.9-5.8,4.3-5.8S105.1,34.3,105.1,36.1L105.1,36.1L105.1,36.1z M101.3,32.3   c-1.2,0-2.2,1.6-2.3,4.2c1.2,0.1,3.2,0,3.9-0.2c0.2-0.1,0.4-0.2,0.4-0.6C103.3,34.6,102.8,32.3,101.3,32.3L101.3,32.3L101.3,32.3z    M101.1,30.9c0,0-0.2-0.1-0.1-0.2c0.5-0.9,0.9-1.8,1.1-2.2c0.1-0.1,0.2-0.2,0.4-0.2c0.1,0,0.4,0,0.6,0c0.1,0,0.1,0.1,0,0.1   C102.8,29,101.8,30.2,101.1,30.9C100.8,31.4,100.8,31.4,101.1,30.9L101.1,30.9L101.1,30.9z"></path>
	<path class="st2" d="M115.2,27.3c0.1,0,0.1,0,0.1,0.1s-0.2,6.8-0.2,7.9c0,0.7-0.1,5.5-0.1,5.8c0,0.2,0.1,0.3,0.2,0.3l1.1,0.2   c0.1,0,0.1,0.1,0.1,0.2c0,0,0,0-0.1,0c-0.4,0-0.9,0-1.4,0c-0.6,0-1,0-1.3,0c-0.1,0-0.1,0-0.1-0.2c0-0.4,0-3,0-3.6   c0-0.3,0-0.8,0.1-1.1h-0.1c-0.1,0.2-0.1,0.5-0.2,0.7C112.4,40,111,42,109,42c-1.6,0-2.6-1.5-2.6-3.7c0-3.4,1.6-6.4,4.4-6.4   c1.1,0,1.7,0.4,2.3,0.9c0.1,0.1,0.2,0.3,0.3,0.4h0.1c0-0.3-0.1-0.7-0.1-1c0-0.6,0-3.3-0.1-3.9c0-0.1-0.1-0.3-0.2-0.3l-1.4-0.1   c0,0-0.1-0.1-0.1-0.2l0,0L115.2,27.3L115.2,27.3z M110,41c1.3,0,2.8-2.2,3.5-5.3c0-0.2,0.1-0.4,0.1-0.5c0-0.2,0-0.4-0.1-0.6   c-0.4-1-1.3-2.3-2.5-2.3c-1.8,0-2.8,2.4-2.8,5.4C108.3,39.5,109,41,110,41L110,41L110,41z"></path>
	<path class="st2" d="M120.1,31.9c0.1,0,0.2,0.1,0.2,0.2c0,0.9-0.1,3.9-0.2,4.9c0,1-0.1,3.7-0.1,4.1c0,0.2,0.1,0.2,0.2,0.3l1,0.2   c0,0,0.1,0.1,0.1,0.2c0,0,0,0.1-0.1,0.1c-0.4,0-1.2,0-2,0c-0.9,0-1.7,0-2.1,0l0,0c0-0.1,0-0.2,0.1-0.2l1-0.2c0.1,0,0.2-0.1,0.3-0.3   c0-0.4,0-3.1-0.1-4.2c0-1-0.1-3.3-0.1-3.8c0-0.2,0-0.3-0.2-0.3h-1c-0.1,0-0.1-0.1-0.1-0.2c0,0,0-0.1,0.1-0.1L120.1,31.9L120.1,31.9   z M119.2,28.6c0.6,0,1,0.4,1,0.9s-0.4,1-1,1c-0.5,0-1-0.4-1-0.9S118.5,28.6,119.2,28.6L119.2,28.6L119.2,28.6z"></path>
	<path class="st2" d="M125.6,32.9c-0.1,1.5-0.2,3.1-0.2,4.6c0,2.8,0.6,3.9,2.1,3.9c0.2,0,0.5,0,0.7-0.1c0.3-0.1,0.9-0.2,1.3-0.5   c0.1,0,0.1,0.1,0.1,0.2c0,0,0,0.1-0.1,0.1c-0.4,0.2-1.2,0.6-1.9,0.8c-0.2,0-0.5,0.1-0.9,0.1c-1.9,0-3.1-1-3.1-4   c0-1.5,0.2-3.5,0.4-5.1h-1.9c0,0-0.1,0-0.1-0.1s0-0.2,0.1-0.3c0.1-0.2,0.2-0.3,0.4-0.3h1.5c0.1-0.5,0.2-1.5,0.3-2.1   c0.1-0.3,0.2-0.4,0.5-0.6s0.8-0.5,1-0.5l0.1,0.1c-0.1,0.6-0.2,2.1-0.3,3h3.9l0,0c0,0.1-0.1,0.3-0.1,0.3L125.6,32.9L125.6,32.9z"></path>
	<path class="st2" d="M138.1,36.1c0,0.3-0.2,0.6-0.5,0.6c-0.8,0.2-4.7,0.3-5.6,0.2c0,0.4,0,0.9,0,1.2c0.1,1.9,1.4,3.1,2.8,3.1   c0.6,0,1.1-0.1,1.4-0.2c0.5-0.1,1.2-0.5,1.7-0.7c0,0,0.1,0.1,0.1,0.2c0,0,0,0.1-0.1,0.1c-0.4,0.3-1.4,0.9-2.2,1.1   c-0.3,0.1-0.8,0.2-1.5,0.2c-2.3,0-4-1.3-4-4.3c0-2.8,1.9-5.8,4.3-5.8C137.1,31.9,138.1,34.3,138.1,36.1L138.1,36.1L138.1,36.1z    M134.4,32.3c-1.2,0-2.2,1.6-2.3,4.2c1.2,0.1,3.2,0,3.9-0.2c0.2-0.1,0.4-0.2,0.4-0.6C136.3,34.6,135.8,32.3,134.4,32.3L134.4,32.3   L134.4,32.3z"></path>
	<path class="st2" d="M142.3,37.5c0-0.2,0.1-0.5,0.1-0.7c0.5-1.8,1.6-4.9,3.7-4.9c0.3,0,0.5,0.1,0.6,0.2l0.1,0.1l0.1,2.5   c0,0.1-0.1,0.1-0.2,0.1l0,0c-0.2-0.4-0.4-1-0.6-1.4c-0.1-0.2-0.3-0.4-0.6-0.4c-1.6,0-2.7,3.4-3.2,6c-0.1,0.5-0.2,1.7-0.2,2   c0,0.2,0.1,0.2,0.2,0.3l1.6,0.2c0,0,0.1,0.1,0.1,0.2v0.1c-0.5,0-1.5,0-2.6,0c-0.9,0-1.7,0-1.9,0l0,0c0-0.1,0-0.2,0.1-0.2l1-0.2   c0.1,0,0.2-0.1,0.2-0.2c0-0.5,0-3.2,0-4.3c0-1-0.1-3.2-0.1-3.8c0-0.2,0-0.3-0.2-0.4h-1c-0.1,0-0.1-0.1-0.1-0.2c0,0,0-0.1,0.1-0.1   l2.9-0.5c0.2,0,0.2,0,0.2,0.2c0,0.6-0.1,3.5-0.2,4.7c0,0.2,0,0.5,0,0.7L142.3,37.5L142.3,37.5z"></path>
	<path class="st2" d="M150.7,37.5c0-0.2,0.1-0.5,0.1-0.7c0.5-1.8,1.6-4.9,3.7-4.9c0.3,0,0.5,0.1,0.6,0.2l0.1,0.1l0.1,2.5   c0,0.1-0.1,0.1-0.2,0.1l0,0c-0.2-0.4-0.4-1-0.6-1.4c-0.1-0.2-0.3-0.4-0.6-0.4c-1.6,0-2.7,3.4-3.2,6c-0.1,0.5-0.2,1.7-0.2,2   c0,0.2,0.1,0.2,0.2,0.3l1.6,0.2c0,0,0.1,0.1,0.1,0.2v0.1c-0.5,0-1.5,0-2.6,0c-0.9,0-1.7,0-1.9,0l0,0c0-0.1,0-0.2,0.1-0.2l1-0.2   c0.1,0,0.2-0.1,0.2-0.2c0-0.5,0-3.2,0-4.3c0-1-0.1-3.2-0.1-3.8c0-0.2,0-0.3-0.2-0.4h-1c-0.1,0-0.1-0.1-0.1-0.2c0,0,0-0.1,0.1-0.1   l2.9-0.5c0.2,0,0.2,0,0.2,0.2c0,0.6-0.1,3.5-0.2,4.7c0,0.2,0,0.5,0,0.7L150.7,37.5L150.7,37.5z"></path>
	<path class="st2" d="M162.1,36.5c0-0.4-0.1-1.2-0.2-1.6c-0.2-1.4-0.7-2.2-1.9-2.2c-1.1,0-2.2,0.7-3.1,1.7c0,0,0,0-0.1,0   s-0.2-0.2-0.1-0.3c1-1.2,2.4-2.2,4.3-2.2c2.3,0,2.7,2.1,2.7,4.2c0,0.5,0,1.8-0.1,2.5c0,0.7-0.1,2-0.1,2.4c0,0.2,0.1,0.3,0.2,0.3   l1,0.2c0.1,0,0.1,0.1,0.1,0.2c0,0,0,0-0.1,0c-0.2,0-0.8,0-1.4,0c-0.5,0-0.9,0-1.2,0c-0.1,0-0.1,0-0.1-0.1c0-0.3,0-1.4,0-2   c0-0.2,0-0.5,0-0.7h-0.1c-0.1,0.2-0.2,0.4-0.3,0.6c-0.6,1-1.8,2.4-3.6,2.4c-1.3,0-2.4-0.9-2.4-2.8c0-1.7,1.1-3.8,3.6-3.8   c1,0,1.8,0.4,2.2,0.7C161.9,36.2,162,36.3,162.1,36.5L162.1,36.5L162.1,36.5z M159.2,41.2c1.1,0,2.3-1.3,2.8-2.9   c0.1-0.1,0.1-0.4,0.1-0.5s-0.1-0.3-0.1-0.5c-0.3-0.6-1.1-1.4-2.2-1.4c-1.4,0-2.1,1.4-2.1,3C157.6,40.3,158.2,41.2,159.2,41.2   L159.2,41.2L159.2,41.2z"></path>
	<path class="st2" d="M176.3,41.6c0,0,0.1,0.1,0.1,0.2l0,0c-0.5,0-1.1,0-2,0s-1.6,0-2,0l0,0c0-0.1,0-0.2,0.1-0.2l0.9-0.2   c0.2,0,0.3-0.1,0.3-0.3c0-0.4,0.1-2.6,0.1-3.3c0-2.5-0.4-4.6-1.5-4.6c-1.4,0-3,3.4-3.5,5.6c-0.1,0.6-0.2,1.7-0.2,2.3   c0,0.2,0.1,0.2,0.2,0.3l1.1,0.2c0,0,0.1,0.1,0.1,0.2c0,0,0,0-0.1,0c-0.6,0-1.2,0-2.1,0c-0.8,0-1.4,0-1.9,0l0,0c0-0.1,0-0.2,0.1-0.2   l1-0.2c0.1,0,0.2-0.1,0.2-0.3c0-0.6,0-3.1,0-4.2c0-0.9-0.1-3.3-0.1-3.8c0-0.2,0-0.4-0.2-0.4h-1c-0.1,0-0.1-0.1-0.1-0.2   c0,0,0-0.1,0.1-0.1l2.9-0.5c0.1,0,0.1,0,0.1,0.1c0,0.5-0.1,3.5-0.2,4.7c0,0.3,0,0.6,0,0.9h0.1c0.1-0.2,0.2-0.6,0.2-0.7   c0.6-1.7,2.2-5.1,4.4-5.1c1.6,0,2,2.4,2,4.9c0,1.3-0.1,3.6-0.2,4.2c0,0.3,0,0.3,0.3,0.4L176.3,41.6L176.3,41.6z"></path>
	<path class="st2" d="M185.4,36.1c0,0.3-0.2,0.6-0.5,0.6c-0.8,0.2-4.7,0.3-5.6,0.2c0,0.4,0,0.9,0,1.2c0.1,1.9,1.4,3.1,2.8,3.1   c0.6,0,1.1-0.1,1.4-0.2c0.5-0.1,1.2-0.5,1.7-0.7c0,0,0.1,0.1,0.1,0.2c0,0,0,0.1-0.1,0.1c-0.4,0.3-1.4,0.9-2.2,1.1   c-0.3,0.1-0.8,0.2-1.5,0.2c-2.3,0-4-1.3-4-4.3c0-2.8,1.9-5.8,4.3-5.8S185.4,34.3,185.4,36.1L185.4,36.1z M181.6,32.3   c-1.2,0-2.2,1.6-2.3,4.2c1.2,0.1,3.2,0,3.9-0.2c0.2-0.1,0.4-0.2,0.4-0.6C183.6,34.6,183,32.3,181.6,32.3L181.6,32.3L181.6,32.3z    M181.4,30.9c0,0-0.2-0.1-0.1-0.2c0.5-0.9,0.9-1.8,1.1-2.2c0.1-0.1,0.2-0.2,0.4-0.2c0.1,0,0.4,0,0.6,0c0.1,0,0.1,0.1,0,0.1   C183.1,29,182.1,30.2,181.4,30.9C181,31.4,181,31.4,181.4,30.9L181.4,30.9L181.4,30.9z"></path>
	<path class="st2" d="M194.7,36.1c0,0.3-0.2,0.6-0.5,0.6c-0.8,0.2-4.7,0.3-5.6,0.2c0,0.4,0,0.9,0,1.2c0.1,1.9,1.4,3.1,2.8,3.1   c0.6,0,1.1-0.1,1.4-0.2c0.5-0.1,1.2-0.5,1.7-0.7c0,0,0.1,0.1,0.1,0.2c0,0,0,0.1-0.1,0.1c-0.4,0.3-1.4,0.9-2.2,1.1   c-0.3,0.1-0.8,0.2-1.5,0.2c-2.3,0-4-1.3-4-4.3c0-2.8,1.9-5.8,4.3-5.8S194.7,34.3,194.7,36.1L194.7,36.1L194.7,36.1z M191,32.3   c-1.2,0-2.2,1.6-2.3,4.2c1.2,0.1,3.2,0,3.9-0.2c0.2-0.1,0.4-0.2,0.4-0.6C192.9,34.6,192.4,32.3,191,32.3L191,32.3L191,32.3z"></path>
</g>
<g>
	<path class="st2" d="M84.6,23.5c-3,0-5-2.1-5-6.1s2.2-7.4,6-7.4c3.2,0,4.9,2.5,4.9,6.1C90.5,20.6,88.4,23.5,84.6,23.5L84.6,23.5   L84.6,23.5z M85,23.1c2.4,0,3.6-2.7,3.6-6.8c0-3.1-1.1-6-3.3-6c-2.5,0-3.8,3.1-3.8,6.8S82.9,23.1,85,23.1L85,23.1L85,23.1z"></path>
	<path class="st2" d="M94.8,19c0-0.2,0.1-0.5,0.1-0.7c0.5-1.8,1.6-4.9,3.7-4.9c0.3,0,0.5,0.1,0.6,0.2l0.1,0.1l0.1,2.5   c0,0.1-0.1,0.1-0.2,0.1l0,0c-0.2-0.4-0.4-1-0.6-1.4c-0.1-0.2-0.3-0.4-0.6-0.4c-1.6,0-2.7,3.4-3.2,6c-0.1,0.5-0.2,1.7-0.2,2   c0,0.2,0.1,0.2,0.2,0.3l1.6,0.2c0,0,0.1,0.1,0.1,0.2v0.1c-0.5,0-1.5,0-2.6,0c-0.9,0-1.7,0-1.9,0l0,0c0-0.1,0-0.2,0.1-0.2l1-0.2   c0.1,0,0.2-0.1,0.2-0.2c0-0.5,0-3.2,0-4.3c0-1-0.1-3.2-0.1-3.8c0-0.2,0-0.3-0.2-0.4h-1c-0.1,0-0.1-0.1-0.1-0.2c0,0,0-0.1,0.1-0.1   l2.9-0.5c0.2,0,0.2,0,0.2,0.2c0,0.6-0.1,3.5-0.2,4.7C94.7,18.6,94.7,18.8,94.8,19L94.8,19L94.8,19z"></path>
	<path class="st2" d="M103.2,13.5c0.1,0,0.2,0.1,0.2,0.2c0,0.9-0.1,3.9-0.2,4.9c0,1-0.1,3.7-0.1,4.1c0,0.2,0.1,0.2,0.2,0.3l1,0.2   c0,0,0.1,0.1,0.1,0.2c0,0,0,0.1-0.1,0.1c-0.4,0-1.2,0-2,0c-0.9,0-1.7,0-2.1,0l0,0c0-0.1,0-0.2,0.1-0.2l1-0.2c0.1,0,0.3-0.1,0.3-0.3   c0-0.4,0-3.1-0.1-4.2c0-1-0.1-3.3-0.1-3.8c0-0.2,0-0.3-0.2-0.3h-1c-0.1,0-0.1-0.1-0.1-0.2c0,0,0-0.1,0.1-0.1L103.2,13.5L103.2,13.5   z M102.3,10.1c0.6,0,1,0.4,1,0.9s-0.4,1-1,1c-0.5,0-1-0.4-1-0.9C101.2,10.6,101.6,10.1,102.3,10.1L102.3,10.1L102.3,10.1z"></path>
	<path class="st2" d="M113.5,17.7c0,0.3-0.2,0.6-0.5,0.6c-0.8,0.2-4.7,0.3-5.6,0.2c0,0.4,0,0.9,0,1.2c0.1,1.9,1.4,3.1,2.8,3.1   c0.6,0,1.1-0.1,1.4-0.2c0.5-0.1,1.2-0.5,1.7-0.7c0,0,0.1,0.1,0.1,0.2c0,0,0,0.1-0.1,0.1c-0.4,0.3-1.4,0.9-2.2,1.1   c-0.3,0.1-0.8,0.2-1.5,0.2c-2.3,0-4-1.3-4-4.3c0-2.8,1.9-5.8,4.3-5.8C112.5,13.5,113.5,15.8,113.5,17.7   C113.5,17.6,113.5,17.7,113.5,17.7z M109.8,13.9c-1.2,0-2.2,1.6-2.3,4.2c1.2,0.1,3.2,0,3.9-0.2c0.2-0.1,0.4-0.2,0.4-0.6   C111.7,16.1,111.2,13.9,109.8,13.9L109.8,13.9L109.8,13.9z"></path>
	<path class="st2" d="M125.4,23.1c0,0,0.1,0.1,0.1,0.2l0,0c-0.5,0-1.1,0-2,0s-1.6,0-2,0l0,0c0-0.1,0-0.2,0.1-0.2l0.9-0.2   c0.2,0,0.2-0.1,0.3-0.3c0-0.4,0.1-2.6,0.1-3.3c0-2.5-0.4-4.6-1.5-4.6c-1.4,0-3,3.4-3.5,5.6c-0.1,0.6-0.2,1.7-0.2,2.3   c0,0.2,0.1,0.2,0.2,0.3l1.1,0.2c0,0,0.1,0.1,0.1,0.2c0,0,0,0-0.1,0c-0.6,0-1.2,0-2.1,0c-0.8,0-1.4,0-1.9,0l0,0c0-0.1,0-0.2,0.1-0.2   l1-0.2c0.1,0,0.2-0.1,0.2-0.3c0-0.6,0-3.1,0-4.2c0-0.9-0.1-3.3-0.1-3.8c0-0.2,0-0.4-0.2-0.4h-1c-0.1,0-0.1-0.1-0.1-0.2   c0,0,0-0.1,0.1-0.1l2.9-0.5c0.1,0,0.1,0,0.1,0.1c0,0.5-0.1,3.5-0.2,4.7c0,0.3,0,0.6,0,0.9h0.1c0.1-0.2,0.2-0.6,0.2-0.7   c0.6-1.7,2.2-5.1,4.4-5.1c1.6,0,2,2.4,2,4.9c0,1.3-0.1,3.6-0.2,4.2c0,0.3,0,0.3,0.2,0.4L125.4,23.1L125.4,23.1z"></path>
	<path class="st2" d="M129.5,14.4c-0.1,1.5-0.2,3.1-0.2,4.6c0,2.8,0.6,3.9,2.1,3.9c0.2,0,0.5,0,0.7-0.1c0.3-0.1,0.9-0.2,1.3-0.5   c0.1,0,0.1,0.1,0.1,0.2c0,0,0,0.1-0.1,0.1c-0.4,0.2-1.2,0.6-1.9,0.8c-0.2,0-0.5,0.1-0.9,0.1c-1.9,0-3-1-3-4c0-1.5,0.2-3.5,0.4-5.1   h-1.9c0,0-0.1,0-0.1-0.1s0-0.2,0.1-0.3c0.1-0.2,0.2-0.3,0.4-0.3h1.5c0.1-0.5,0.2-1.5,0.3-2.1c0.1-0.3,0.2-0.4,0.5-0.6   c0.3-0.2,0.8-0.5,1-0.5l0.1,0.1c-0.1,0.6-0.2,2.1-0.3,3h3.9l0,0c0,0.1-0.1,0.3-0.1,0.3L129.5,14.4L129.5,14.4z"></path>
</g>
<path class="st18" d="M146.7,20.4c-0.1,0.2-0.2,0.4-0.3,0.6c0.8,0.9,1.6,1.5,2.3,1.8s1.5,0.4,2.4,0.4h1.4c0.4,0,0.6,0.1,0.6,0.3  c0,0.2-0.4,0.3-1.3,0.3c-1.4,0-2.5-0.2-3.3-0.4c-0.7-0.3-1.5-0.8-2.4-1.8c-0.7,1-1.4,1.7-2.2,2c-0.6,0.2-1.2,0.4-1.9,0.4  c-1.3,0-2.3-0.4-3.1-1.2c-0.8-0.8-1.2-1.9-1.2-3.1c0-1.4,0.5-2.6,1.5-3.6c0.5-0.5,1.3-1.1,2.4-1.8c-0.8-1.7-1.2-3-1.2-4  c0-0.8,0.3-1.5,0.8-2.1c0.5-0.5,1.2-0.8,2-0.8s1.4,0.3,1.9,0.8s0.7,1.2,0.7,1.9c0,1.1-0.5,2.1-1.5,3c-0.3,0.2-0.9,0.7-1.8,1.4  c0.5,1.1,1,2,1.4,2.7c0.6,1.1,1.4,2.3,2.3,3.5c0.3-0.6,0.6-1.7,1-3c0.5-1.9,1-3.2,1.4-4c0.6-1,1.5-1.5,2.6-1.5  c0.8,0,1.4,0.3,1.9,0.8s0.7,1.2,0.7,2c0,0.7-0.2,1.2-0.6,1.7c-0.4,0.5-0.9,0.7-1.5,0.7c-0.4,0-0.7-0.1-1-0.4  c-0.3-0.2-0.4-0.5-0.4-0.9c0-0.5,0.2-0.8,0.6-0.8c0.3,0,0.4,0.2,0.4,0.5c0,0.2-0.1,0.3-0.3,0.4c-0.1,0-0.1,0.1-0.1,0.1  c0,0.1,0.1,0.3,0.4,0.4c0.2,0,0.3,0,0.4,0c0.4,0,0.7-0.2,1-0.5c0.3-0.4,0.4-0.8,0.4-1.3c0-0.7-0.2-1.2-0.6-1.6  c-0.4-0.4-0.9-0.6-1.5-0.6c-1.2,0-2,0.7-2.6,2.2c-0.2,0.5-0.4,1.2-0.7,2.1C147.2,18.8,146.9,19.9,146.7,20.4L146.7,20.4z   M143.2,17.5c-0.4-0.7-0.9-1.7-1.5-2.8c-0.9,0.6-1.7,1.1-2.1,1.6c-0.8,0.9-1.2,1.9-1.2,3.2c0,1.2,0.3,2.1,1,2.8  c0.7,0.7,1.6,1.1,2.7,1.1c1.4,0,2.6-0.8,3.6-2.3C144.7,19.9,143.9,18.7,143.2,17.5L143.2,17.5z M141,10.2c0,0.9,0.4,2.2,1.1,3.7  c2-1.2,3-2.5,3-3.9c0-0.7-0.2-1.2-0.5-1.6c-0.4-0.4-0.8-0.6-1.5-0.6s-1.2,0.2-1.5,0.6C141.1,8.9,141,9.4,141,10.2L141,10.2z"></path>
</svg>
