<?xml version="1.0" standalone="no"?>
<!DOCTYPE svg PUBLIC "-//W3C//DTD SVG 20010904//EN"
 "http://www.w3.org/TR/2001/REC-SVG-20010904/DTD/svg10.dtd">
<svg version="1.0" xmlns="http://www.w3.org/2000/svg"
 width="300.000000pt" height="300.000000pt" viewBox="0 0 300.000000 300.000000"
 preserveAspectRatio="xMidYMid meet">
<metadata>
Created by potrace 1.14, written by Peter Selinger 2001-2017
</metadata>
<g transform="translate(0.000000,300.000000) scale(0.100000,-0.100000)"
fill="#000000" stroke="none">
<path d="M943 2762 c-18 -9 -33 -19 -33 -23 0 -13 56 -49 127 -80 130 -59 304
-77 420 -44 65 19 193 83 237 119 l29 24 -53 11 c-49 11 -56 10 -95 -13 -50
-30 -133 -63 -178 -72 -106 -21 -263 9 -375 71 -24 14 -45 24 -46 24 0 -1 -16
-9 -33 -17z"/>
<path d="M1722 2652 c-89 -94 -131 -125 -244 -176 -158 -72 -281 -78 -450 -20
-88 29 -176 79 -248 138 -30 26 -58 46 -62 46 -4 0 -21 -8 -38 -18 l-30 -19
47 -44 c172 -160 428 -247 634 -216 66 10 181 51 247 88 99 56 167 115 270
237 l42 51 -37 10 c-21 6 -40 11 -43 11 -3 0 -42 -40 -88 -88z"/>
<path d="M2012 2625 c-152 -73 -304 -181 -450 -322 -89 -86 -273 -158 -430
-170 -68 -4 -106 -1 -212 22 -50 10 -232 92 -238 107 -2 4 -9 8 -14 8 -17 0
-146 100 -205 159 l-53 52 -37 -20 -38 -20 75 -73 c90 -88 159 -141 260 -196
200 -109 381 -143 566 -106 166 33 284 92 410 205 200 179 329 260 543 339
l73 27 -65 16 c-37 10 -72 17 -79 17 -7 0 -55 -20 -106 -45z"/>
<path d="M2175 2331 c-357 -119 -479 -176 -689 -319 -174 -118 -255 -153 -392
-168 -200 -21 -323 1 -507 92 -101 50 -177 98 -258 160 l-57 43 -6 -31 c-11
-56 -7 -64 61 -113 168 -120 379 -213 531 -233 94 -13 247 -5 336 18 125 33
183 61 337 163 224 149 373 217 708 323 101 32 186 65 189 72 2 8 -1 26 -9 41
l-14 28 -230 -76z"/>
<path d="M2475 2066 c-51 -21 -204 -73 -330 -111 -417 -126 -547 -175 -801
-300 -102 -51 -203 -93 -250 -105 -107 -28 -268 -30 -405 -5 -116 21 -306 107
-448 202 -19 13 -36 21 -39 19 -2 -3 -7 -23 -9 -44 -4 -35 -2 -40 34 -64 71
-47 228 -126 299 -151 149 -53 352 -74 502 -51 126 19 182 38 327 113 226 116
386 179 675 266 257 77 492 158 497 170 2 7 -2 26 -9 43 -12 29 -14 30 -43 18z"/>
<path d="M2540 1723 c-87 -39 -354 -126 -625 -203 -320 -91 -533 -158 -698
-221 -235 -90 -256 -94 -422 -93 -190 2 -384 54 -559 150 -54 30 -101 52 -103
50 -3 -2 -7 -22 -10 -44 l-5 -39 113 -56 c197 -97 353 -137 549 -142 156 -4
230 9 390 70 265 100 440 155 885 280 245 69 575 186 575 204 0 16 -22 71 -28
70 -4 0 -32 -12 -62 -26z"/>
<path d="M2680 1417 c-32 -16 -157 -68 -243 -102 l-67 -26 -45 27 c-173 101
-398 38 -481 -135 l-29 -61 -240 -79 c-419 -139 -455 -146 -814 -144 l-224 1
44 -42 44 -41 195 0 c287 -1 416 23 770 144 96 33 183 61 194 63 16 2 19 -5
23 -42 5 -53 33 -120 69 -168 14 -18 24 -34 23 -36 -4 -2 -338 -98 -534 -153
-171 -48 -326 -81 -395 -82 l-34 -1 39 -40 c22 -23 46 -38 55 -36 8 3 37 7 64
11 66 8 292 68 621 163 264 77 271 79 310 65 92 -33 223 -20 304 31 34 22 97
85 117 117 5 8 43 28 84 43 41 16 124 52 183 79 l109 51 -7 35 c-10 51 -11 52
-58 27 -59 -31 -251 -116 -263 -116 -5 0 -9 30 -10 68 0 51 -7 81 -27 126 -15
33 -26 60 -25 61 2 1 39 16 83 33 117 45 215 90 214 99 0 4 -6 23 -12 40 -11
31 -13 32 -37 20z"/>
<path d="M2680 679 c-77 -36 -275 -115 -380 -152 -216 -76 -679 -200 -902
-242 -54 -10 -98 -22 -98 -25 0 -4 43 -14 96 -23 91 -15 100 -15 185 4 302 66
672 177 934 281 219 86 217 85 231 141 7 26 9 47 5 47 -3 -1 -35 -15 -71 -31z"/>
</g>
</svg>
