<?xml version="1.0" encoding="utf-8"?>
<!-- Generator: Adobe Illustrator 26.3.1, SVG Export Plug-In . SVG Version: 6.00 Build 0)  -->
<svg version="1.1" id="Ebene_1" xmlns="http://www.w3.org/2000/svg" xmlns:xlink="http://www.w3.org/1999/xlink" x="0px" y="0px"
	 viewBox="0 0 841.9 595.3" style="enable-background:new 0 0 841.9 595.3;" xml:space="preserve">
<style type="text/css">
	.st0{fill:#0F293D;}
	.st1{fill:#0E293D;}
	.st2{fill:url(#SVGID_1_);}
	.st3{fill:url(#SVGID_00000009561955278981903620000014265462631863564691_);}
	.st4{fill:url(#SVGID_00000076581822142633259920000014273919881024400807_);}
	.st5{fill:url(#SVGID_00000180361880294959099680000001048677449085767570_);}
	.st6{fill:url(#SVGID_00000181066802014302159900000015049117133857255808_);}
	.st7{fill:url(#SVGID_00000183937348786949178450000009496410087003896481_);}
	.st8{fill:url(#SVGID_00000073710115029912038220000014876483126993033118_);}
	.st9{fill:url(#SVGID_00000098924701805773268820000015253538283593769905_);}
	.st10{fill:url(#SVGID_00000047781633965230438910000003002219180414072215_);}
	.st11{fill:#FFFFFF;}
</style>
<g>
	<path class="st0" d="M407.2,344.2v18.3c0,18.8-13.3,29.7-35,29.7h-25.1v47.1h-8.2V314.5h33.3C393.9,314.5,407.2,325.4,407.2,344.2z
		 M399,345.1c0-15.5-9.1-22.8-26.5-22.8h-25.4v62.1h25.4c17.4,0,26.5-7.3,26.5-22.8V345.1z"/>
	<path class="st0" d="M427.8,406v-57.8c0-21.9,12.8-35.6,37.2-35.6c24.2,0,37,13.7,37,35.6V406c0,21.7-12.8,35.4-37,35.4
		S427.8,427.7,427.8,406z M493.8,404.7v-55.3c0-18.7-8.7-29-28.8-29c-20.3,0-29,10.3-29,29v55.3c0,18.5,8.7,28.8,29,28.8
		C485.1,433.5,493.8,423.2,493.8,404.7z"/>
	<path class="st0" d="M639.8,314.6L611,439.4h-9.4l-24.2-107.8L553,439.4h-9.4l-28.8-124.8h8.2L548.6,428l25.1-113.5h7.1l25.4,113.8
		l25.4-113.8H639.8z"/>
	<path class="st0" d="M666.6,322.4v51h42.5v7.8h-42.5v50.3h51v7.8h-59.2V314.6h59.2v7.8H666.6z"/>
	<path class="st0" d="M804.8,439.4l-26-57.1c-1.2,0.2-2.5,0.2-3.7,0.2H750v56.9h-8.2V314.6h33.3c21.7,0,35,10.8,35,29.5v8.9
		c0,15.1-8.5,24.9-22.9,28.3l26.1,58.1H804.8z M775.5,374.9c17.4,0,26.5-7.5,26.5-22.8V345c0-15.1-9.1-22.6-26.5-22.6H750v52.5
		H775.5z"/>
</g>
<g>
	<path class="st1" d="M428.9,280.7h-7.6V172.4l-34,108.3h-6.8l-34-108.3v108.3h-7.6V155.9h9.4l35.6,110.3l35.6-110.3h9.4V280.7z"/>
	<path class="st1" d="M508.4,240.5h-41.3l-11.6,40.2h-8l35-124.8h10.3l35.2,124.8H520L508.4,240.5z M469.5,232.7h36.8l-18.5-66.5
		L469.5,232.7z"/>
	<path class="st1" d="M615.1,185.6v18.3c0,18.8-13.3,29.7-35,29.7H555v47.1h-8.2V155.9h33.3C601.7,155.9,615.1,166.8,615.1,185.6z
		 M606.9,186.5c0-15.5-9.1-22.8-26.5-22.8H555v62.1h25.4c17.4,0,26.5-7.3,26.5-22.8V186.5z"/>
	<path class="st1" d="M634.1,250.2v-4.8h8.2v5.2c0,14.9,10.8,24.5,27.7,24.5c17.1,0,27.7-10,27.7-25.6c0-36.6-60.8-23.8-60.8-64.7
		c0-18.1,11.6-30.8,32.9-30.8c21.5,0,34.1,12.4,34.1,31.5v5.5h-8.2v-6c0-13.9-9.8-23.1-25.8-23.1c-15.6,0-24.9,8.9-24.9,22.8
		c0,33.4,60.6,21.3,60.8,64.4c0,20.1-13.2,33.8-35.9,33.8C647.6,282.7,634.1,269.7,634.1,250.2z"/>
</g>
<g>
	<path class="st0" d="M740.5,265.3v-27.2c0-10,6.5-16.5,17.9-16.5c11.4,0,17.9,6.6,17.9,16.5v27.2c0,9.9-6.5,16.5-17.9,16.5
		C747,281.8,740.5,275.2,740.5,265.3z M769.2,265.2v-26.8c0-6.3-3.1-9.8-10.7-9.8c-7.6,0-10.7,3.5-10.7,9.8v26.8
		c0,6.2,3.1,9.7,10.7,9.7C766,274.9,769.2,271.3,769.2,265.2z"/>
	<path class="st0" d="M793,229.5v20.9h18.3v6.9H793v23.4h-7.2v-58h28.4v6.8H793z"/>
</g>
<g>
	<linearGradient id="SVGID_1_" gradientUnits="userSpaceOnUse" x1="78.8726" y1="218.9479" x2="238.9174" y2="276.5079">
		<stop  offset="0" style="stop-color:#226D8B"/>
		<stop  offset="1" style="stop-color:#A0C223"/>
	</linearGradient>
	<path class="st2" d="M228,244.3l-4.4,1.2c-34.5,9.7-61.7,17.4-90.9,29.2c-17.6,7.1-39.1,7-63.8-0.3c-11.1-3.3-22.2-8.9-33-15.6
		l-1.6,8.1c10.5,6.3,21.4,11.7,32.3,14.9c26.4,7.8,49.6,7.8,68.9,0.1c28.8-11.6,55.8-19.3,90.1-28.9l4.4-1.2
		c22.1-6.3,40.3-12.6,55.5-19.3l-2.2-7.4C268.4,231.7,250.3,238,228,244.3z"/>
	
		<linearGradient id="SVGID_00000132809000466537464580000009144529558645796512_" gradientUnits="userSpaceOnUse" x1="69.6071" y1="244.7105" x2="229.6519" y2="302.2705">
		<stop  offset="0" style="stop-color:#226D8B"/>
		<stop  offset="1" style="stop-color:#A0C223"/>
	</linearGradient>
	<path style="fill:url(#SVGID_00000132809000466537464580000009144529558645796512_);" d="M219,283.8c-13.4,3.7-25.6,7.8-37.3,11.9
		c-23.2,8-43.2,14.8-64.3,14.9c-3,0-5.9,0-8.8,0.1c-11.1,0.1-21.8,0.2-32.3-0.8l9.2,8.4c7.6,0.3,15.3,0.2,23.2,0.2
		c2.9,0,5.8,0,8.8-0.1c22.3,0,42.9-7.1,66.8-15.3c11.7-4,23.7-8.1,36.8-11.7c30.9-8.4,54.9-17,74.3-26.4l-2.3-7.6
		C273.9,266.7,250,275.4,219,283.8z"/>
	
		<linearGradient id="SVGID_00000037653890090464136730000009014321436539645885_" gradientUnits="userSpaceOnUse" x1="53.3254" y1="289.9816" x2="213.3702" y2="347.5415">
		<stop  offset="0" style="stop-color:#226D8B"/>
		<stop  offset="1" style="stop-color:#A0C223"/>
	</linearGradient>
	<path style="fill:url(#SVGID_00000037653890090464136730000009014321436539645885_);" d="M298.3,328.8
		c-24.8,12.3-55.9,23.4-97.3,34.1c-17.5,4.5-34.3,8.2-50.9,11.2l22.2,3.5c10.1-2.2,20.3-4.6,30.7-7.3c37.6-9.7,67.9-20.1,93-31.9
		L298.3,328.8z"/>
	
		<linearGradient id="SVGID_00000072996068209244879330000015992435742715240579_" gradientUnits="userSpaceOnUse" x1="61.6387" y1="266.8667" x2="221.6835" y2="324.4267">
		<stop  offset="0" style="stop-color:#226D8B"/>
		<stop  offset="1" style="stop-color:#A0C223"/>
	</linearGradient>
	<path style="fill:url(#SVGID_00000072996068209244879330000015992435742715240579_);" d="M210,323.3c-11.1,2.9-21.5,6-31.5,9
		c-22.6,6.7-42.8,12.7-61.9,14.2l7.7,7c17.7-2.2,36.1-7.7,56.4-13.8c10-3,20.3-6.1,31.3-9c40-10.6,69.7-21.6,93.1-33.7l-2.3-7.7
		C279.6,301.7,250.1,312.7,210,323.3z"/>
	
		<linearGradient id="SVGID_00000062172077813105922070000016440080455949299103_" gradientUnits="userSpaceOnUse" x1="89.2547" y1="190.0806" x2="249.2995" y2="247.6406">
		<stop  offset="0" style="stop-color:#226D8B"/>
		<stop  offset="1" style="stop-color:#A0C223"/>
	</linearGradient>
	<path style="fill:url(#SVGID_00000062172077813105922070000016440080455949299103_);" d="M237,204.8c-32.9,9.7-58.4,17.8-87.9,34.1
		c-20,11.1-43.1,9.6-59,6.4c-13.8-2.8-29.7-10.4-47.2-22.3l-1.6,8.3c17.2,11.5,33,18.8,47.3,21.6c17.1,3.4,42.2,4.9,64.3-7.2
		c28.8-15.9,53.9-23.9,86.3-33.4c13.9-4.1,26-8.2,36.6-12.4l-2.2-7.5C263.1,196.6,251,200.7,237,204.8z"/>
	
		<linearGradient id="SVGID_00000037655423702886299320000014494817117144120197_" gradientUnits="userSpaceOnUse" x1="116.7636" y1="113.5924" x2="276.8084" y2="171.1524">
		<stop  offset="0" style="stop-color:#226D8B"/>
		<stop  offset="1" style="stop-color:#A0C223"/>
	</linearGradient>
	<path style="fill:url(#SVGID_00000037655423702886299320000014494817117144120197_);" d="M169.2,138.1c9.1-2.8,17.7-7.5,25.3-13.8
		l-10.2-2.2c-5.5,3.7-11.4,6.7-17.4,8.6c-1.1,0.3-2.2,0.6-3.3,0.9c-13.4,2.8-30.8-0.9-42.8-9.3l-7.5,3.9
		C128.5,138.4,152.3,143.3,169.2,138.1z"/>
	
		<linearGradient id="SVGID_00000057870574593586557810000013428059669534039211_" gradientUnits="userSpaceOnUse" x1="112.5242" y1="125.3802" x2="272.5689" y2="182.9402">
		<stop  offset="0" style="stop-color:#226D8B"/>
		<stop  offset="1" style="stop-color:#A0C223"/>
	</linearGradient>
	<path style="fill:url(#SVGID_00000057870574593586557810000013428059669534039211_);" d="M198.4,131.6
		c-10.9,13.8-27.7,23.7-45.1,26.5c-18.8,3-44.1-7.4-58.1-22.4l-7.1,3.7c15.5,17.8,44.5,29.8,66.5,26.3c19.6-3.1,37.8-13.8,50-29.3
		c2.4-3,4.7-5.8,7.1-8.4l-8.7-1.9C201.4,127.9,199.9,129.7,198.4,131.6z"/>
	
		<linearGradient id="SVGID_00000118359093063047106000000006354722142630568102_" gradientUnits="userSpaceOnUse" x1="107.9338" y1="138.1437" x2="267.9786" y2="195.7037">
		<stop  offset="0" style="stop-color:#226D8B"/>
		<stop  offset="1" style="stop-color:#A0C223"/>
	</linearGradient>
	<path style="fill:url(#SVGID_00000118359093063047106000000006354722142630568102_);" d="M132.5,194.8c21-0.5,40.9-8.5,54.8-22
		c21.4-20.7,39-29,61.4-36.8l-14.1-3.1c-18.2,7.2-34,16.2-52.7,34.3c-9.3,9-21.6,15.3-35.2,18.1c-4.7,1-9.6,1.6-14.5,1.7
		c-24.3,0.6-53.7-17.4-68.4-35.1l-7,3.7C72.7,175.6,104.9,195.5,132.5,194.8z"/>
	
		<linearGradient id="SVGID_00000065047452840315498440000003927121161441392282_" gradientUnits="userSpaceOnUse" x1="99.5696" y1="161.4003" x2="259.6143" y2="218.9603">
		<stop  offset="0" style="stop-color:#226D8B"/>
		<stop  offset="1" style="stop-color:#A0C223"/>
	</linearGradient>
	<path style="fill:url(#SVGID_00000065047452840315498440000003927121161441392282_);" d="M246,165.3c-29.5,9.2-52.5,17.2-80.5,37.8
		c-14.1,10.4-33.4,15.1-54.3,13.1c-20.2-1.9-43.4-15.2-61.2-29.9l-1.4,7.1l-0.3,1.6c18.4,14.6,41.4,27,62.1,29
		c22.7,2.1,43.9-3.1,59.6-14.6c27-19.8,49.4-27.7,78.2-36.6c6.3-2,12.2-3.9,17.6-5.9l-2.2-7.4C258.2,161.3,252.4,163.3,246,165.3z"
		/>
</g>
<g>
	<circle class="st0" cx="237.3" cy="297.6" r="34.1"/>
	<circle class="st11" cx="237.3" cy="297.6" r="19.5"/>
</g>
</svg>
